<svg id="Capa_1" enable-background="new 0 0 512.001 512.001" height="512" viewBox="0 0 512.001 512.001" width="512" xmlns="http://www.w3.org/2000/svg"><path d="m120.969 210.001h15v227c0 41.355 33.645 75 75 75 32.773 0 62.088-21.724 71.687-52.952l122.184-288.334c3.231-7.628-.331-16.431-7.959-19.664-7.627-3.232-16.432.331-19.664 7.959l-101.667 239.919c-13.067-22.081-37.117-36.928-64.581-36.928-16.871 0-32.456 5.603-45 15.041v-167.041h135c8.284 0 15-6.716 15-15v-84.907c0-56.991-42.9-106.988-99.375-109.945-60.72-3.181-110.625 45.081-110.625 104.852v90c0 8.284 6.716 15 15 15zm90 182c24.813 0 45 20.187 45 45 0 25.265-20.697 45-45 45-24.813 0-45-20.187-45-45s20.187-45 45-45zm-15-287c0-8.271 6.729-15 15-15s15 6.729 15 15c0 12.996-7.385 34.688-15 53.378-7.615-18.69-15-40.382-15-53.378zm-60 0c0-42.579 35.527-77.171 79.056-74.893 39.119 2.048 70.944 37.93 70.944 79.986v69.907h-51.52c9.308-21.422 21.52-53.605 21.52-75 0-24.813-20.187-45-45-45s-45 20.187-45 45c0 21.395 12.212 53.578 21.52 75h-51.52z"/></svg>