<svg height="512pt" viewBox="0 -31 512 512" width="512pt" xmlns="http://www.w3.org/2000/svg"><path d="m497 60c-24.933594 0-46-20.605469-46-45 0-8.285156-6.714844-15-15-15s-15 6.714844-15 15c0 24.8125-20.1875 45-45 45-8.285156 0-15 6.714844-15 15s6.714844 15 15 15c24.8125 0 45 20.1875 45 45 0 8.285156 6.714844 15 15 15s15-6.714844 15-15c0-24.394531 21.066406-45 46-45 8.285156 0 15-6.714844 15-15s-6.714844-15-15-15zm-60.847656 30.25c-4.3125-5.78125-9.433594-10.917969-15.199219-15.25 5.765625-4.328125 10.886719-9.46875 15.199219-15.25 4.359375 5.71875 9.609375 10.90625 15.457031 15.25-5.84375 4.339844-11.09375 9.527344-15.457031 15.25zm0 0"/><path d="m483.1875 351.320312-212.1875-105.609374v-25.167969c0-6.648438 3.660156-12.691407 8.703125-14.371094 30.683594-10.210937 51.296875-38.816406 51.296875-71.171875 0-41.355469-33.644531-75-75-75s-75 33.644531-75 75c0 8.285156 6.714844 15 15 15s15-6.714844 15-15c0-24.8125 20.1875-45 45-45s45 20.1875 45 45c0 19.417969-12.367188 36.582031-30.773438 42.710938-17.480468 5.816406-29.226562 23.03125-29.226562 42.835937v25.164063l-212.210938 105.625c-17.757812 8.878906-28.789062 26.726562-28.789062 46.582031 0 28.71875 23.363281 52.082031 52.082031 52.082031h406.835938c28.769531 0 53.082031-23.261719 53.082031-52.082031 0-19.855469-11.03125-37.703125-28.8125-46.597657zm-24.269531 68.679688h-37.917969v-15c0-24.8125-20.1875-45-45-45-8.285156 0-15 6.714844-15 15s6.714844 15 15 15c8.269531 0 15 6.730469 15 15v15h-271v-15c0-8.269531 6.730469-15 15-15 8.285156 0 15-6.714844 15-15s-6.714844-15-15-15c-24.8125 0-45 20.1875-45 45v15h-37.917969c-12.175781 0-22.082031-9.90625-22.082031-22.082031 0-8.417969 4.675781-15.984375 12.183594-19.738281l213.816406-106.425782 213.792969 106.414063c7.53125 3.765625 12.207031 11.332031 12.207031 19.75 0 11.96875-10.570312 22.082031-23.082031 22.082031zm0 0"/><path d="m60 255c0 8.285156 6.714844 15 15 15s15-6.714844 15-15c0-24.8125 20.1875-45 45-45 8.285156 0 15-6.714844 15-15s-6.714844-15-15-15c-24.8125 0-45-20.1875-45-45 0-8.285156-6.714844-15-15-15s-15 6.714844-15 15c0 24.8125-20.1875 45-45 45-8.285156 0-15 6.714844-15 15s6.714844 15 15 15c24.8125 0 45 20.1875 45 45zm15-75.046875c4.277344 5.699219 9.351562 10.769531 15.046875 15.046875-5.695313 4.277344-10.769531 9.351562-15.046875 15.046875-4.277344-5.699219-9.351562-10.769531-15.046875-15.046875 5.695313-4.277344 10.769531-9.351562 15.046875-15.046875zm0 0"/></svg>